/* XPM */
static char *_68904eaccb34096e3f072f9d5f14109dU28TrBkKxkJhGOc[] = {
/* columns rows colors chars-per-pixel */
"48 48 130 2 ",
"   c #161D23",
".  c #181F25",
"X  c #192126",
"o  c #1B2329",
"O  c #1F2931",
"+  c #232E36",
"@  c #252F38",
"#  c #243139",
"$  c #2B333C",
"%  c #293741",
"&  c #2A3A44",
"*  c #2D3E48",
"=  c #323C43",
"-  c #323D49",
";  c #2F414C",
":  c #364047",
">  c #34414B",
",  c #39434D",
"<  c #334551",
"1  c #3C4654",
"2  c #364B56",
"3  c #3D4A53",
"4  c #3A4D5A",
"5  c #3C505D",
"6  c #3E5562",
"7  c #3F5866",
"8  c #424D57",
"9  c #434F5D",
"0  c #44515B",
"q  c #4B555E",
"w  c #464F61",
"e  c #415463",
"r  c #485363",
"t  c #415867",
"y  c #435B69",
"u  c #4D5B6A",
"i  c #525E67",
"p  c #525E6A",
"a  c #4E606E",
"s  c #55616A",
"d  c #59636D",
"f  c #4E6472",
"g  c #516573",
"h  c #526976",
"j  c #5C6877",
"k  c #546A78",
"l  c #5E6A79",
"z  c #636E7D",
"x  c #69747B",
"c  c #707981",
"v  c #727F8A",
"b  c #778187",
"n  c #74828D",
"m  c #7D858B",
"M  c #768492",
"N  c #798693",
"B  c #7A8995",
"V  c #7D8C99",
"C  c #838E9C",
"Z  c #84909E",
"A  c #8793A1",
"S  c #8996A3",
"D  c #8A99A6",
"F  c #8E9DAA",
"G  c #909FAC",
"H  c #90A0AD",
"J  c #97A6B3",
"K  c #99A7B4",
"L  c #9CABB7",
"P  c #9DACB8",
"I  c #A0AFBB",
"U  c #A3B2BD",
"Y  c #A7B5C1",
"T  c #ABB7C3",
"R  c #ADB9C4",
"E  c #AFBCC8",
"W  c #B2BECA",
"Q  c #B4C1CC",
"!  c #B6C2CE",
"~  c #B6C3CE",
"^  c #B7C4CF",
"/  c #B6C3CE",
"(  c #B9C4CD",
")  c #BAC4CD",
"_  c #BAC5CE",
"`  c #BAC5CE",
"'  c #B8C5D0",
"]  c #B9C5D0",
"[  c #BAC6D1",
"{  c #BAC6D3",
"}  c #BCC7D2",
"|  c #BECAD3",
" . c #BCC9D4",
".. c #BDC9D4",
"X. c #BFCBD6",
"o. c #BECBD7",
"O. c #BEC9D2",
"+. c #C0CCD7",
"@. c #C1CDD8",
"#. c #C5D1DB",
"$. c #CED7DF",
"%. c #C9D4DD",
"&. c #CFD8E2",
"*. c #CEDAE4",
"=. c #D0D9E1",
"-. c #D2DCE4",
";. c #D3DCE5",
":. c #D4DEE6",
">. c #D4DFE7",
",. c #D5DFE7",
"<. c #D6DFE7",
"1. c #D0D9E0",
"2. c #D6E0E8",
"3. c #DBE2E8",
"4. c #DEE5EB",
"5. c #DAE3EC",
"6. c #DCE5ED",
"7. c #DEE6ED",
"8. c #D8E3EA",
"9. c #E2E9F0",
"0. c #E2EAF0",
"q. c #E3EAF0",
"w. c #E3EAF1",
"e. c #E3EBF1",
"r. c #E4EBF1",
"t. c #E4ECF2",
"y. c #E5ECF2",
"u. c #E2E9F0",
"i. c #E9F0F6",
"p. c #EAF1F8",
/* pixels */
"y.y.y.y.y.y.y.y.y.y.y.y.y.y.y.y.y.y.y.e.i.4.G 1 # m 3.p.r.y.y.y.y.y.y.y.y.y.y.y.y.y.y.y.r.e.;.@.",
"y.7.2.,.,.,.,.,.,.,.,.,.,.,.,.,.,.,.,.,.5.&.D 1 # b $.7.,.,.,.,.,.,.,.,.,.,.,.,.,.,.,.,.,.;.T Z ",
"e.=.{ { { { { { { { { { { { { { { { { { +...A 1 # x W ..{ { { { { { { { { { { { { { { { ....C r ",
"e.| K J J J J J J J J J J J J J J J J J U Q Z 1 @ d G L J J J J J J J J J J J J J J J J I ^ C w ",
"e.) F D D D F F G G G G G G G G G F D D L W A 1 @ i A F D D F G G G G G G G G G G F D D J Q C w ",
"e.) F D F D V N n n n n n n n n n B A D L W A 1 @ i A G D A B n n n n n n n n n n B S D K Q C w ",
"e.) F F F Z j 8 = = = = = = = = $ 0 N D L W A 1 @ p A G F N 0 $ = = = = = = = = & 8 B F K Q C w ",
"e.) F F F V p < % o X X X X X .   = n F P W A 1 @ p A H F n = O $ O . X X X X X . & n G K Q C w ",
"e.) F F F V p e 4 + o o o o o o   - n F P W A 1 @ s A H F v : & 2 # X o o o o o X = n G K Q C w ",
"e.) F F F V p e 4 + o o o o o o   - n F P W A 1 @ p A H F n : & 2 # X o o o o o X = n G K Q C w ",
"e.) F F F V p e 4 + o o o o o o   - n F P W A 1 @ p A H F n : & 2 # X o o o o o X = n G K Q C w ",
"e.) F F F V p e 4 + o o o o o o   - n F P W A 1 @ p A H F n : & 2 # X o o o o o X = n G K Q C w ",
"e.) F F F V p e 4 + o o o o o o   - n F P W A 1 @ p A H F n : & 2 # X o o o o o X = n G K Q C w ",
"e.) F F F V p e 4 + o o o o o o   - n F P W A 1 @ p A H F n : & 2 # X o o o o o X = n G K Q C w ",
"e.) F F F V p e 4 + o o o o o o   = n F P W A 1 @ p A H F n : & 2 # X o o o o o X = n G K Q C w ",
"e.) F F F V p e 4 + o o o o o X . - n F P W A 1 @ p A H F n : & 2 # X o o o o o X = n F K Q C w ",
"e.) F F F V p e 4 + o o o o X X + 0 N D P W A 1 @ p A H F n : & 2 # X o o o o X + 0 B F K Q C w ",
"e.) F F F V p e 4 + o o o X o + ; g V D P W A 1 @ p A H F n : & 2 # X o o o o + > f V F K Q C w ",
"e.) F F F V p e 4 + o o o X + > 6 k V D P W A 1 @ p A H F n : & 2 # X o o o + < 6 g V F K Q C w ",
"e.) F F F V p e 4 + o X o + > 6 t k V D P W A 1 @ p A H F n : & 2 # X X o + > 6 t k V F K Q C w ",
"e.) F F F V p e 4 + X o + > e t 5 a B D L W A 1 @ i A F F n : & 2 # . o + > e t 6 u V F K Q C w ",
"e.) F F F V p e 4 + X + < 6 t 6 * 3 n F I W A 1 @ s D J H n : & 2 # X + < 6 t e > , M F K Q C w ",
"e.) F F F V p e 4 + + > 6 y 6 > O = n U | } Z 1 # x R E L n : & 2 # + > 6 t 6 > + = n G K Q C w ",
"e.) F F F V p e 5 & > e t 6 < + . = M ) 3.%.A 1 # m =.*.T n - & 4 * ; 6 t 6 < + X = n G K Q C w ",
"e.) F F F V p e 6 5 6 t e > + o   = n R #.{ C 1 # c | #.Y n - & 6 6 6 t e > + o X = n G K Q C w ",
"e.) F F F V p e t t y 6 > + o X . - n S C B z 1 @ q N Z S v : & 6 y t 6 > + o o X = n G K Q C w ",
"e.) F F F V p e t t 6 < + o o o   : v M l l g 1 @ , p l M v , & e y 6 < + o o o X = n G K Q C w ",
"e.) F F F V p e t 6 > + o o o o   - v Z A H n 1 @ q n V A v : & 6 t > + o X o o X = n G K Q C w ",
"e.) F F F V p e 6 > + o o o o o   - n F U Q S 1 @ s D J H n : & 5 < + X X o o o X = n G K Q C w ",
"e.) F F F V p e 4 @ o o o o o o   - n F P W A 1 @ p A H F n : & 2 # X o o o o o X = n G K Q C w ",
"e.) F F F V p e 4 + X o o o o X   - n F P W A 1 @ i A H F n : & 2 # . o o o o o X = n G K Q C w ",
"e.) F F F V p e 4 + o o o o o X   - n F P W A 1 @ p A H F n : & 2 # X o o o o o X = n G K Q C w ",
"e.) F F F V p e 4 + o o o o o o   = n F P W A 1 @ p A H F n : & 2 # X o o o o o X = n G K Q C w ",
"e.) F F F V p e 4 + o o o o o o . : n F P W A 1 @ p A H F n : & 2 # X o o o o o o = n G K Q C w ",
"e.) F F F V p e 4 + o o o o o o + 0 N D L W A 1 @ p A H F n : & 2 # X o o o o o + 4 B F K Q C w ",
"e.) F F F V p e 4 + o o o o o + ; g V D P W A 1 @ p A H F n : & 2 # X o o o o + > f V F K Q C w ",
"e.) F F F V p e 4 + X o o o + < 6 k V D P W A 1 @ p A H F n : & 2 # X o o o + < 6 k V F K Q C w ",
"e.) F F F V p e 4 + o X o + > 6 7 k V D P W A 1 @ p A H F n : & 2 # X X o + > 6 t g V F K Q C w ",
"e.) F F F V p e 4 + X o + > e t 6 k V D P W A 1 @ p A H F n : & 2 # X o + > e t t g V F K Q C w ",
"e.) F F F V p e 4 + o + < 6 t t 6 k V D P W A 1 @ p A H F n : & 2 # X + < 6 t t t g V F K Q C w ",
"e.) F F F V p 9 4 - $ - 4 e e e 5 g V D P W A 1 @ p A G F M 9 > 4 - $ - 4 e e e e a V F K Q C w ",
"e.) F F F C l p p p p p p p p p u l V D P W A 1 @ p A H F V l u p p p p p p p p p l C F K Q C w ",
"e.) F D F D C V V V V V V V V V V C S D L W A 1 @ p A G F D Z V V V V V V V V V V C D D K Q C w ",
"e.) F D D F F F F F F F F F F F F F F D L W A 1 @ p A G D F F F F F F F F F F F F F F D K Q C w ",
"e.) F D F F F F F F F F F F F F F F F D L W A 1 @ p A G D F F F F F F F F F F F F F F D K Q C w ",
"e.) F D F F F F F F F F F F F F F F F D L W A 1 @ p A G F F F F F F F F F F F F F F F D K Q C w ",
"e.) F D F F F F F F F F F F F F F F F D L W A 1 @ p A G F F F F F F F F F F F F F F F D K Q C w ",
"e.) F D F F F F F F F F F F F F F F F D L W A 1 @ p A G F F F F F F F F F F F F F F F D K Q C w "
};
